<svg width="48" height="48" viewBox="0 0 48 48" fill="none" xmlns="http://www.w3.org/2000/svg">
    <path d="M24 4C12.954 4 4 12.954 4 24c0 8.832 5.73 16.302 13.667 18.933.999.184 1.333-.433 1.333-.963v-3.351c-5.555 1.207-6.726-2.366-6.726-2.366-.909-2.31-2.22-2.925-2.22-2.925-1.815-1.24.137-1.215.137-1.215 2.007.141 3.063 2.06 3.063 2.06 1.782 3.057 4.675 2.174 5.815 1.663.18-1.292.697-2.175 1.268-2.675-4.433-.505-9.097-2.217-9.097-9.862 0-2.18.778-3.96 2.054-5.357-.206-.504-.89-2.534.194-5.282 0 0 1.675-.536 5.485 2.044A19.153 19.153 0 0124 15.555c1.683.008 3.38.227 4.963.666 3.808-2.58 5.48-2.044 5.48-2.044 1.087 2.748.403 4.778.197 5.282 1.28 1.397 2.052 3.177 2.052 5.357 0 7.664-4.672 9.352-9.12 9.845.716.618 1.361 1.834 1.361 3.697v5.483c0 .534.331 1.155 1.342.96C38.28 40.295 44 32.83 44 24c0-11.046-8.954-20-20-20z" fill="#FFD700"/>
</svg>
