<svg width="800" height="600" viewBox="0 0 800 600" fill="none" xmlns="http://www.w3.org/2000/svg">
    <!-- Background Network Pattern -->
    <path d="M0 0h800v600H0z" fill="#1A1A1A"/>
    <g opacity="0.1" stroke="#FFD700" stroke-width="1">
        <path d="M100 100h600v400H100z"/>
        <path d="M200 150h400v300H200z"/>
        <path d="M300 200h200v200H300z"/>
    </g>

    <!-- Central BitcoinZ Logo -->
    <circle cx="400" cy="300" r="100" fill="#FFD700" opacity="0.2"/>
    <circle cx="400" cy="300" r="80" fill="#FFD700" opacity="0.3"/>
    <circle cx="400" cy="300" r="60" fill="#FFD700"/>
    
    <!-- Connected Nodes -->
    <circle cx="200" cy="150" r="20" fill="#FFD700"/>
    <circle cx="600" cy="150" r="20" fill="#FFD700"/>
    <circle cx="200" cy="450" r="20" fill="#FFD700"/>
    <circle cx="600" cy="450" r="20" fill="#FFD700"/>
    
    <!-- Connection Lines -->
    <path d="M220 150l160 150M580 150l-160 150M220 450l160-150M580 450l-160-150" 
          stroke="#FFD700" stroke-width="2" opacity="0.5"/>
    
    <!-- Decorative Elements -->
    <circle cx="400" cy="300" r="10" fill="#1A1A1A"/>
    <path d="M395 295l10 10M395 305l10-10" stroke="#1A1A1A" stroke-width="2"/>
    
    <!-- Animated Particles (Static in SVG) -->
    <g opacity="0.6">
        <circle cx="300" cy="200" r="5" fill="#FFD700"/>
        <circle cx="500" cy="200" r="5" fill="#FFD700"/>
        <circle cx="300" cy="400" r="5" fill="#FFD700"/>
        <circle cx="500" cy="400" r="5" fill="#FFD700"/>
    </g>
    
    <!-- Text Elements -->
    <path d="M385 380l30-160" stroke="#FFD700" stroke-width="2" opacity="0.3"/>
    <circle cx="400" cy="300" r="120" stroke="#FFD700" stroke-width="1" opacity="0.1"/>
</svg>
