<?xml version="1.0" encoding="UTF-8"?>
<svg xmlns="http://www.w3.org/2000/svg" width="24" height="24" viewBox="0 0 24 24">
  <style>
    path {
      fill: #FFD700;
    }
  </style>
  <!-- Brain network -->
  <path d="M12 2C6.48 2 2 6.48 2 12s4.48 10 10 10 10-4.48 10-10S17.52 2 12 2zm0 18c-4.41 0-8-3.59-8-8s3.59-8 8-8 8 3.59 8 8-3.59 8-8 8z"/>
  <!-- Neural connections -->
  <path d="M8 8l2 2m4 0l2-2M8 16l2-2m4 0l2 2" opacity="0.8"/>
  <!-- Connection nodes -->
  <path d="M8 8c.55 0 1-.45 1-1s-.45-1-1-1-1 .45-1 1 .45 1 1 1zm8 0c.55 0 1-.45 1-1s-.45-1-1-1-1 .45-1 1 .45 1 1 1zm0 8c.55 0 1-.45 1-1s-.45-1-1-1-1 .45-1 1 .45 1 1 1zm-8 0c.55 0 1-.45 1-1s-.45-1-1-1-1 .45-1 1 .45 1 1 1z" opacity="0.7"/>
  <!-- Central processor -->
  <path d="M12 13c.55 0 1-.45 1-1s-.45-1-1-1-1 .45-1 1 .45 1 1 1z" opacity="0.9"/>
</svg>