<?xml version="1.0" encoding="UTF-8"?>
<svg xmlns="http://www.w3.org/2000/svg" width="24" height="24" viewBox="0 0 24 24">
  <style>
    path {
      fill: #FFD700;
    }
  </style>
  <!-- Left blockchain -->
  <path d="M4 4h6v6H4z"/>
  <!-- Right blockchain -->
  <path d="M14 14h6v6h-6z"/>
  <!-- Gateway bridge -->
  <path d="M10 7h4v10h-4z" opacity="0.8"/>
  <!-- Connection nodes -->
  <path d="M7 10c.55 0 1-.45 1-1s-.45-1-1-1-1 .45-1 1 .45 1 1 1zm10 4c.55 0 1-.45 1-1s-.45-1-1-1-1 .45-1 1 .45 1 1 1z" opacity="0.7"/>
  <!-- Data flow indicators -->
  <path d="M8 12l2-2 2 2m2 0l2-2 2 2" opacity="0.6"/>
</svg>