<?xml version="1.0" encoding="UTF-8"?>
<svg xmlns="http://www.w3.org/2000/svg" width="24" height="24" viewBox="0 0 24 24">
  <style>
    path {
      fill: #FFD700;
    }
  </style>
  <!-- Browser window frame -->
  <path d="M20 4H4c-1.1 0-1.99.9-1.99 2L2 18c0 1.1.9 2 2 2h16c1.1 0 2-.9 2-2V6c0-1.1-.9-2-2-2zm-1 14H5c-.55 0-1-.45-1-1V8h16v9c0 .55-.45 1-1 1z"/>
  <!-- Community/people icons inside -->
  <path d="M12 12c1.1 0 2-.9 2-2s-.9-2-2-2-2 .9-2 2 .9 2 2 2zm-4 2v1h8v-1c0-1.33-2.67-2-4-2s-4 .67-4 2z" opacity="0.8"/>
  <!-- Code brackets -->
  <path d="M8 13l-3 3 3 3M16 13l3 3-3 3" opacity="0.6"/>
</svg>