<?xml version="1.0" encoding="UTF-8"?>
<svg xmlns="http://www.w3.org/2000/svg" width="24" height="24" viewBox="0 0 24 24">
  <style>
    path {
      fill: #FFD700;
    }
  </style>
  <!-- Video player frame -->
  <path d="M21 3H3c-1.1 0-2 .9-2 2v14c0 1.1.9 2 2 2h18c1.1 0 2-.9 2-2V5c0-1.1-.9-2-2-2zm0 16H3V5h18v14z"/>
  <!-- Play button -->
  <path d="M10 8v8l6-4z" opacity="0.8"/>
  <!-- Community elements -->
  <path d="M4 19h4v2H4zm12 0h4v2h-4z" opacity="0.6"/>
  <!-- Educational series dots -->
  <path d="M8 2h2v2H8zm3 0h2v2h-2zm3 0h2v2h-2z" opacity="0.7"/>
</svg>