<?xml version="1.0" encoding="UTF-8"?>
<svg xmlns="http://www.w3.org/2000/svg" width="24" height="24" viewBox="0 0 24 24">
  <style>
    path {
      fill: #FFD700;
    }
  </style>
  <!-- Hardware device base -->
  <path d="M18 2H6c-1.1 0-2 .9-2 2v16c0 1.1.9 2 2 2h12c1.1 0 2-.9 2-2V4c0-1.1-.9-2-2-2zm0 18H6V4h12v16z"/>
  <!-- Screen display -->
  <path d="M8 6h8v4H8z" opacity="0.8"/>
  <!-- Security shield -->
  <path d="M12 11c-2.21 0-4 1.79-4 4s1.79 4 4 4 4-1.79 4-4-1.79-4-4-4zm0 6c-1.1 0-2-.9-2-2s.9-2 2-2 2 .9 2 2-.9 2-2 2z" opacity="0.7"/>
  <!-- USB connection -->
  <path d="M10 19h4v3h-4z" opacity="0.6"/>
</svg>