<?xml version="1.0" encoding="UTF-8"?>
<svg xmlns="http://www.w3.org/2000/svg" width="24" height="24" viewBox="0 0 24 24">
  <style>
    path {
      fill: #FFD700;
    }
  </style>
  <!-- Market chart -->
  <path d="M3 13h2v7H3zm4-7h2v14H7zm4 3h2v11h-2zm4-3h2v14h-2z"/>
  <!-- Social platform elements -->
  <path d="M19 3h-4v2h4v4h2V5c0-1.1-.9-2-2-2z" opacity="0.8"/>
  <!-- Community connections -->
  <path d="M12 8c1.1 0 2-.9 2-2s-.9-2-2-2-2 .9-2 2 .9 2 2 2z" opacity="0.7"/>
  <!-- Network indicators -->
  <path d="M5 8l2-2m10 0l2 2" opacity="0.6"/>
</svg>