<?xml version="1.0" encoding="UTF-8"?>
<svg xmlns="http://www.w3.org/2000/svg" width="24" height="24" viewBox="0 0 24 24">
  <style>
    path {
      fill: #FFD700;
    }
  </style>
  <!-- Mining pickaxe -->
  <path d="M14.5 8.5l-2-2 5-5 2 2z"/>
  <!-- Neural network nodes -->
  <path d="M19 14c0 1.1-.9 2-2 2s-2-.9-2-2 .9-2 2-2 2 .9 2 2zM7 14c0 1.1-.9 2-2 2s-2-.9-2-2 .9-2 2-2 2 .9 2 2zm6 0c0 1.1-.9 2-2 2s-2-.9-2-2 .9-2 2-2 2 .9 2 2z" opacity="0.8"/>
  <!-- Network connections -->
  <path d="M7 14h4m4 0h4M11 14v4m2-4v4" opacity="0.6"/>
  <!-- AI circuit pattern -->
  <path d="M5 19h14M5 21h14" opacity="0.7"/>
</svg>