<?xml version="1.0" encoding="UTF-8"?>
<svg xmlns="http://www.w3.org/2000/svg" width="24" height="24" viewBox="0 0 24 24">
  <style>
    path {
      fill: #FFD700;
    }
  </style>
  <!-- Mining pickaxe -->
  <path d="M15 5l-3-3 4-1 1 4z"/>
  <!-- Community group -->
  <path d="M12 12c1.1 0 2-.9 2-2s-.9-2-2-2-2 .9-2 2 .9 2 2 2zm-4 3v1h8v-1c0-1.33-2.67-2-4-2s-4 .67-4 2z"/>
  <!-- Additional miners -->
  <path d="M7 8c.83 0 1.5-.67 1.5-1.5S7.83 5 7 5s-1.5.67-1.5 1.5S6.17 8 7 8zm10 0c.83 0 1.5-.67 1.5-1.5S17.83 5 17 5s-1.5.67-1.5 1.5S16.17 8 17 8z" opacity="0.8"/>
  <!-- Network connections -->
  <path d="M4 13v4h4v-4H4zm12 0v4h4v-4h-4z" opacity="0.6"/>
</svg>