<?xml version="1.0" encoding="UTF-8"?>
<svg xmlns="http://www.w3.org/2000/svg" width="24" height="24" viewBox="0 0 24 24">
  <style>
    path {
      fill: #FFD700;
    }
  </style>
  <!-- Main wallet body -->
  <path d="M21 18v1c0 1.1-.9 2-2 2H5c-1.11 0-2-.9-2-2V5c0-1.1.89-2 2-2h14c1.1 0 2 .9 2 2v1h-9c-1.11 0-2 .9-2 2v8c0 1.1.89 2 2 2h9zm-9-2h10V8H12v8zm4-2.5c-.83 0-1.5-.67-1.5-1.5s.67-1.5 1.5-1.5 1.5.67 1.5 1.5-.67 1.5-1.5 1.5z"/>
  <!-- Privacy shield overlay -->
  <path d="M12 8.5l3 1.3v1.2c0 1.5-1.07 2.63-3 3.2V8.5z" opacity="0.8"/>
</svg>