<?xml version="1.0" encoding="UTF-8"?>
<svg xmlns="http://www.w3.org/2000/svg" width="24" height="24" viewBox="0 0 24 24">
  <style>
    path {
      fill: #FFD700;
    }
  </style>
  <!-- Twitter bird silhouette -->
  <path d="M22 5.8a8.5 8.5 0 0 1-2.4.7 4.2 4.2 0 0 0 1.8-2.3c-.8.5-1.7.8-2.6 1a4.2 4.2 0 0 0-7.2 3.8A12 12 0 0 1 3 4.6a4.2 4.2 0 0 0 1.3 5.6A4.2 4.2 0 0 1 2.5 9v.1a4.2 4.2 0 0 0 3.4 4.1 4.2 4.2 0 0 1-1.9.1 4.2 4.2 0 0 0 3.9 2.9 8.5 8.5 0 0 1-5.2 1.8c-.3 0-.7 0-1-.1a12 12 0 0 0 6.4 1.9c7.7 0 12-6.4 12-12V7a8.6 8.6 0 0 0 2.1-2.2z"/>
  <!-- Verification badge -->
  <path d="M20 14l-2.3-2.3-1.4 1.4 3.7 3.7 5.7-5.7-1.4-1.4z" opacity="0.9" transform="scale(0.7) translate(12, 12)"/>
</svg>