<?xml version="1.0" encoding="UTF-8"?>
<svg xmlns="http://www.w3.org/2000/svg" width="24" height="24" viewBox="0 0 24 24">
  <style>
    path {
      fill: #FFD700;
    }
  </style>
  <!-- Exchange platform base -->
  <path d="M4 6h16v12H4z"/>
  <!-- Wrapping circle -->
  <path d="M12 8c2.21 0 4 1.79 4 4s-1.79 4-4 4-4-1.79-4-4 1.79-4 4-4zm0 2c-1.1 0-2 .9-2 2s.9 2 2 2 2-.9 2-2-.9-2-2-2z" opacity="0.8"/>
  <!-- Trading arrows -->
  <path d="M7 10l2-2 2 2M13 14l2 2 2-2" opacity="0.7"/>
  <!-- Platform frame -->
  <path d="M20 4H4c-1.1 0-2 .9-2 2v12c0 1.1.9 2 2 2h16c1.1 0 2-.9 2-2V6c0-1.1-.9-2-2-2zm0 14H4V6h16v12z" opacity="0.9"/>
</svg>