<svg width="48" height="48" viewBox="0 0 48 48" fill="none" xmlns="http://www.w3.org/2000/svg">
    <path d="M39.924 10.208a37.81 37.81 0 00-9.34-2.9.142.142 0 00-.15.071 26.28 26.28 0 00-1.16 2.385 34.946 34.946 0 00-10.498 0 24.126 24.126 0 00-1.177-2.385.148.148 0 00-.15-.071 37.733 37.733 0 00-9.34 2.9.134.134 0 00-.062.053C3.167 21.07 1.88 31.617 2.667 42.048a.157.157 0 00.06.107 37.992 37.992 0 011.46 11.455.142.142 0 00.054.1.141.141 0 00.108.03 37.923 37.923 0 0011.437-5.774.144.144 0 00.062-.151 27.008 27.008 0 01-2.34-5.626.142.142 0 01.137-.197c.77.118 1.545.268 2.323.447a.146.146 0 00.157-.058c4.426 6.437 11.815 6.437 16.17 0a.145.145 0 01.157.057c.778-.179 1.553-.329 2.323-.447a.142.142 0 01.137.198 26.898 26.898 0 01-2.34 5.626.144.144 0 00.062.15 37.859 37.859 0 0011.437 5.774.144.144 0 00.162-.129c.787-10.431-.493-20.945-5.373-31.787a.113.113 0 00-.061-.053zM16.706 35.36c-2.25 0-4.107-2.069-4.107-4.62 0-2.55 1.82-4.62 4.107-4.62 2.304 0 4.142 2.088 4.107 4.62 0 2.551-1.82 4.62-4.107 4.62zm15.177 0c-2.25 0-4.107-2.069-4.107-4.62 0-2.55 1.82-4.62 4.107-4.62 2.304 0 4.142 2.088 4.107 4.62 0 2.551-1.803 4.62-4.107 4.62z" fill="#FFD700"/>
</svg>
