<svg width="48" height="48" viewBox="0 0 48 48" fill="none" xmlns="http://www.w3.org/2000/svg">
    <path d="M44 10.781c-1.484.656-3.078 1.109-4.75 1.297a8.34 8.34 0 003.64-4.578 16.49 16.49 0 01-5.25 2.016 8.25 8.25 0 00-14.074 7.516c-6.862-.344-12.942-3.625-17.015-8.625a8.287 8.287 0 00-1.12 4.156 8.247 8.247 0 003.672 6.86 8.19 8.19 0 01-3.734-1.032v.11a8.267 8.267 0 006.61 8.095 8.216 8.216 0 01-3.719.14 8.266 8.266 0 007.715 5.72A16.578 16.578 0 016 35.453a23.292 23.292 0 0012.656 3.719c15.187 0 23.484-12.578 23.484-23.484 0-.359-.008-.714-.023-1.07A16.717 16.717 0 0044 10.78z" fill="#FFD700"/>
</svg>
