<?xml version="1.0" encoding="UTF-8"?>
<svg width="24px" height="24px" viewBox="0 0 24 24" version="1.1" xmlns="http://www.w3.org/2000/svg">
    <g stroke="none" stroke-width="1" fill="none" fill-rule="evenodd">
        <path d="M15.5,14.5 L20,19 L19,20 L14.5,15.5 C13.5,16.3 12.3,16.8 11,16.8 C7.7,16.8 5,14.1 5,10.8 C5,7.5 7.7,4.8 11,4.8 C14.3,4.8 17,7.5 17,10.8 C17,12.1 16.5,13.3 15.5,14.5 Z M11,6.8 C8.8,6.8 7,8.6 7,10.8 C7,13 8.8,14.8 11,14.8 C13.2,14.8 15,13 15,10.8 C15,8.6 13.2,6.8 11,6.8 Z" fill="#FFFFFF" fill-rule="nonzero"></path>
        <path d="M3,3 L9,3 L9,5 L5,5 L5,9 L3,9 L3,3 Z" fill="#FFFFFF" fill-rule="nonzero"></path>
        <path d="M15,3 L21,3 L21,9 L19,9 L19,5 L15,5 L15,3 Z" fill="#FFFFFF" fill-rule="nonzero"></path>
        <path d="M3,15 L5,15 L5,19 L9,19 L9,21 L3,21 L3,15 Z" fill="#FFFFFF" fill-rule="nonzero"></path>
        <path d="M19,15 L21,15 L21,21 L15,21 L15,19 L19,19 L19,15 Z" fill="#FFFFFF" fill-rule="nonzero"></path>
    </g>
</svg>
