<?xml version="1.0" encoding="UTF-8"?>
<svg xmlns="http://www.w3.org/2000/svg" width="24" height="24" viewBox="0 0 24 24">
  <style>
    path {
      fill: #FFD700;
    }
  </style>
  <!-- Main wallet -->
  <path d="M18 4H6C4.9 4 4 4.9 4 6v12c0 1.1.9 2 2 2h12c1.1 0 2-.9 2-2V6c0-1.1-.9-2-2-2zm0 14H6V6h12v12z"/>
  <!-- Multiple wallet indicators -->
  <path d="M20 8h2v8h-2zm-18 0h2v8H2z" opacity="0.6"/>
  <!-- Integration connections -->
  <path d="M8 10h8v1H8zm0 3h8v1H8z" opacity="0.8"/>
  <!-- Platform symbols -->
  <path d="M9 8c.55 0 1-.45 1-1s-.45-1-1-1-1 .45-1 1 .45 1 1 1zm6 0c.55 0 1-.45 1-1s-.45-1-1-1-1 .45-1 1 .45 1 1 1zm-3 8c.55 0 1-.45 1-1s-.45-1-1-1-1 .45-1 1 .45 1 1 1z" opacity="0.7"/>
</svg>