<?xml version="1.0" encoding="UTF-8"?>
<svg xmlns="http://www.w3.org/2000/svg" width="24" height="24" viewBox="0 0 24 24">
  <style>
    path {
      fill: #FFD700;
    }
  </style>
  <!-- Server stack -->
  <path d="M20 2H4c-1.1 0-2 .9-2 2v4c0 1.1.9 2 2 2h16c1.1 0 2-.9 2-2V4c0-1.1-.9-2-2-2zm0 6H4V4h16v4zm0 6H4c-1.1 0-2 .9-2 2v4c0 1.1.9 2 2 2h16c1.1 0 2-.9 2-2v-4c0-1.1-.9-2-2-2zm0 6H4v-4h16v4z"/>
  <!-- Status lights -->
  <path d="M6 6h2v2H6zm0 12h2v2H6z" opacity="0.8"/>
  <!-- Network connections -->
  <path d="M15 6l2-2 2 2m-4 12l2 2 2-2" opacity="0.6"/>
</svg>