<?xml version="1.0" encoding="UTF-8"?>
<svg xmlns="http://www.w3.org/2000/svg" width="24" height="24" viewBox="0 0 24 24">
  <style>
    path {
      fill: #FFD700;
    }
  </style>
  <!-- Space/rocket element -->
  <path d="M12 2L8 6v3H5l-4 4 4 4h3v3l4 4 4-4v-3h3l4-4-4-4h-3V6l-4-4z"/>
  <!-- Task server nodes -->
  <path d="M12 8c1.1 0 2 .9 2 2s-.9 2-2 2-2-.9-2-2 .9-2 2-2zm-4 8c.55 0 1 .45 1 1s-.45 1-1 1-1-.45-1-1 .45-1 1-1zm8 0c.55 0 1 .45 1 1s-.45 1-1 1-1-.45-1-1 .45-1 1-1z" opacity="0.8"/>
  <!-- Connection lines -->
  <path d="M12 12v4m-3-2l-1 2m7-2l1 2" opacity="0.6"/>
</svg>