<?xml version="1.0" encoding="UTF-8"?>
<svg xmlns="http://www.w3.org/2000/svg" width="24" height="24" viewBox="0 0 24 24">
  <style>
    path {
      fill: #FFD700;
    }
  </style>
  <!-- Terminal window frame -->
  <path d="M3 4c0-1.1.9-2 2-2h14c1.1 0 2 .9 2 2v16c0 1.1-.9 2-2 2H5c-1.1 0-2-.9-2-2V4z"/>
  <!-- Terminal title bar -->
  <path d="M3 4h18v3H3V4z" opacity="0.8"/>
  <!-- Terminal control dots -->
  <circle cx="5.5" cy="5.5" r="0.5" opacity="0.9"/>
  <circle cx="7" cy="5.5" r="0.5" opacity="0.9"/>
  <circle cx="8.5" cy="5.5" r="0.5" opacity="0.9"/>
  <!-- Terminal prompt ">" -->
  <path d="M5 10l1.5 1.5L5 13v-1h2v-1H5v-1z" opacity="0.9"/>
  <!-- Command line cursor -->
  <path d="M8 11h0.5v2H8v-2z" opacity="1"/>
  <!-- Terminal text lines -->
  <path d="M9 11h7v0.5H9v-0.5zm0 1.5h5v0.5H9v-0.5zm0 1.5h8v0.5H9v-0.5z" opacity="0.7"/>
  <!-- BTCZ indicator -->
  <path d="M18 17c0 .55-.45 1-1 1s-1-.45-1-1 .45-1 1-1 1 .45 1 1z" opacity="0.6"/>
</svg>
